<?xml version="1.0" standalone="no"?><svg xmlns="http://www.w3.org/2000/svg" viewBox="0 0 1440 320"><path fill="#bbe2d9" fill-opacity="1" d="M0,128L11.4,138.7C22.9,149,46,171,69,165.3C91.4,160,114,128,137,112C160,96,183,96,206,106.7C228.6,117,251,139,274,149.3C297.1,160,320,160,343,186.7C365.7,213,389,267,411,282.7C434.3,299,457,277,480,261.3C502.9,245,526,235,549,240C571.4,245,594,267,617,261.3C640,256,663,224,686,229.3C708.6,235,731,277,754,298.7C777.1,320,800,320,823,298.7C845.7,277,869,235,891,218.7C914.3,203,937,213,960,197.3C982.9,181,1006,139,1029,138.7C1051.4,139,1074,181,1097,197.3C1120,213,1143,203,1166,192C1188.6,181,1211,171,1234,149.3C1257.1,128,1280,96,1303,85.3C1325.7,75,1349,85,1371,112C1394.3,139,1417,181,1429,202.7L1440,224L1440,320L1428.6,320C1417.1,320,1394,320,1371,320C1348.6,320,1326,320,1303,320C1280,320,1257,320,1234,320C1211.4,320,1189,320,1166,320C1142.9,320,1120,320,1097,320C1074.3,320,1051,320,1029,320C1005.7,320,983,320,960,320C937.1,320,914,320,891,320C868.6,320,846,320,823,320C800,320,777,320,754,320C731.4,320,709,320,686,320C662.9,320,640,320,617,320C594.3,320,571,320,549,320C525.7,320,503,320,480,320C457.1,320,434,320,411,320C388.6,320,366,320,343,320C320,320,297,320,274,320C251.4,320,229,320,206,320C182.9,320,160,320,137,320C114.3,320,91,320,69,320C45.7,320,23,320,11,320L0,320Z"></path></svg>