<?xml version="1.0" standalone="no"?>
<!DOCTYPE svg PUBLIC "-//W3C//DTD SVG 20010904//EN"
 "http://www.w3.org/TR/2001/REC-SVG-20010904/DTD/svg10.dtd">
<svg version="1.0" xmlns="http://www.w3.org/2000/svg"
 width="1082.000000pt" height="682.000000pt" viewBox="0 0 1082.000000 682.000000"
 preserveAspectRatio="xMidYMid meet">

<g transform="translate(0.000000,682.000000) scale(0.100000,-0.100000)"
fill="#27544b" stroke="none">
<path d="M4995 6679 c-22 -6 -55 -13 -72 -16 -18 -3 -33 -9 -33 -14 0 -5 -9
-9 -19 -9 -29 0 -181 -76 -232 -117 -93 -73 -189 -178 -224 -244 -5 -11 -13
-19 -17 -19 -5 0 -8 -9 -8 -20 0 -11 -4 -20 -8 -20 -9 0 -19 -26 -49 -125 -30
-101 -36 -143 -36 -260 0 -118 8 -190 23 -210 4 -5 10 -25 13 -43 8 -40 76
-182 88 -182 5 0 9 -5 9 -12 0 -12 72 -110 107 -146 72 -72 262 -185 336 -199
18 -3 37 -9 42 -13 33 -24 342 -39 410 -20 110 31 235 75 235 82 0 4 5 8 11 8
34 0 182 123 263 219 40 47 106 162 106 183 0 10 5 18 10 18 6 0 10 7 10 15 0
8 4 23 9 33 18 35 31 89 42 179 20 146 -3 300 -62 429 -10 24 -19 48 -19 53 0
6 -3 11 -8 11 -4 0 -13 14 -20 30 -8 17 -19 36 -25 43 -7 6 -24 28 -39 48 -38
51 -97 111 -138 139 -19 13 -37 27 -40 30 -5 6 -84 54 -127 78 -13 6 -30 12
-38 12 -8 0 -15 5 -15 10 0 6 -10 10 -23 10 -13 0 -27 3 -31 7 -30 30 -345 54
-431 32z m295 -38 c0 -11 5 -23 10 -26 6 -3 10 -16 10 -29 0 -18 -9 -26 -42
-36 -46 -15 -135 -61 -181 -93 -23 -16 -48 -19 -145 -22 -64 -1 -137 -5 -162
-9 l-45 -8 -24 46 c-13 26 -22 48 -20 50 20 20 132 78 177 92 31 9 61 21 67
26 5 4 20 8 35 8 14 0 32 5 40 10 8 5 75 10 148 10 124 0 132 -1 132 -19z m78
-118 c12 -3 25 -9 28 -14 3 -5 14 -9 25 -9 20 0 164 -73 183 -93 39 -40 81
-261 56 -291 -7 -9 -16 -16 -21 -16 -5 0 -45 -18 -90 -40 -45 -22 -90 -40
-100 -40 -9 0 -20 -6 -22 -12 -4 -9 -8 -9 -14 -3 -10 12 -21 19 -150 84 -55
28 -108 51 -117 51 -9 0 -16 5 -16 10 0 6 -6 10 -14 10 -16 0 -26 30 -26 78 0
18 -4 41 -9 50 -4 9 -11 39 -14 65 -4 39 -1 52 15 67 26 24 178 100 200 100 9
0 20 5 23 11 4 6 14 7 24 3 9 -3 26 -9 39 -11z m-680 -84 c18 -33 19 -43 9
-60 -6 -10 -15 -19 -19 -19 -5 0 -8 -7 -8 -15 0 -8 -3 -15 -8 -15 -8 0 -25
-36 -53 -115 -23 -65 -40 -95 -54 -95 -11 0 -130 -93 -157 -123 -10 -11 -24
-17 -33 -13 -17 6 -15 24 11 104 8 23 14 49 14 57 0 8 3 15 8 15 7 0 32 48 32
62 0 5 5 14 10 21 6 7 25 35 43 62 35 55 152 175 171 175 7 0 22 -18 34 -41z
m1084 -51 c18 -24 41 -52 50 -62 19 -21 89 -155 105 -201 34 -97 36 -114 23
-155 -9 -26 -19 -40 -30 -40 -10 0 -30 -2 -46 -5 -27 -5 -31 -2 -52 43 -12 27
-45 74 -72 104 -47 52 -50 60 -50 109 0 52 -3 67 -33 163 -18 56 -14 73 16 79
47 9 56 6 89 -35z m-613 -284 c57 -19 180 -84 205 -106 11 -10 25 -18 31 -18
13 0 35 -112 35 -187 1 -32 5 -77 9 -101 8 -41 7 -44 -28 -70 -20 -15 -38 -29
-41 -32 -11 -11 -128 -89 -163 -109 -48 -27 -50 -26 -244 65 -39 19 -75 34
-80 34 -6 0 -18 9 -28 20 -14 16 -20 44 -25 132 -7 120 -2 218 10 218 4 0 22
14 40 30 18 17 36 30 40 30 5 0 15 6 22 13 11 12 58 41 133 84 27 15 33 15 84
-3z m-522 -40 c27 -19 55 -41 63 -47 9 -7 32 -24 52 -39 l36 -28 5 -122 c3
-68 9 -145 15 -171 7 -40 6 -51 -6 -60 -8 -7 -47 -42 -86 -78 l-71 -66 -52 27
c-92 47 -169 111 -188 156 -18 44 -30 186 -21 258 7 50 13 61 54 102 47 45
128 104 144 104 4 0 29 -16 55 -36z m1313 -201 c25 -31 30 -44 25 -68 -4 -16
-9 -54 -12 -82 -3 -29 -9 -53 -14 -53 -5 0 -9 -10 -9 -23 0 -38 -76 -217 -92
-217 -4 0 -8 -6 -8 -12 0 -7 -13 -28 -28 -45 -21 -25 -36 -33 -61 -33 -32 0
-33 1 -26 33 9 41 9 108 0 176 -5 34 -4 55 3 60 13 8 92 169 92 188 0 7 5 13
10 13 6 0 10 12 10 28 0 33 8 44 40 59 36 17 35 17 70 -24z m-435 -253 c3 -5
15 -10 26 -10 11 0 46 -8 79 -17 56 -17 59 -19 69 -60 25 -97 0 -208 -54 -246
-16 -12 -37 -28 -45 -37 -38 -38 -145 -70 -241 -70 -62 0 -170 17 -182 30 -5
4 -6 57 -2 116 l7 109 59 38 c32 20 63 37 69 37 5 0 10 5 10 10 0 6 6 10 13
11 6 0 39 22 72 49 58 47 106 63 120 40z m-1091 -52 c44 -42 64 -56 165 -110
23 -12 41 -28 41 -35 0 -7 5 -13 10 -13 6 0 10 -9 10 -20 0 -11 5 -20 10 -20
6 0 10 -6 10 -13 0 -13 97 -139 112 -145 4 -2 8 -9 8 -15 0 -16 -49 -75 -50
-59 0 6 -5 12 -11 12 -19 0 -83 49 -147 113 -61 60 -152 183 -152 206 0 6 -4
11 -10 11 -5 0 -10 6 -10 14 0 7 -7 27 -15 42 -28 55 -13 72 29 32z m801 -408
c11 -5 49 -11 85 -12 l65 -3 3 -34 c2 -18 -1 -38 -6 -43 -15 -15 -127 -31
-222 -31 -97 0 -189 14 -275 43 -87 29 -90 32 -75 66 l13 29 196 -3 c108 -1
205 -7 216 -12z"/>
<path d="M8533 6574 c-20 -10 -33 -24 -33 -35 0 -11 -4 -19 -9 -19 -5 0 -11
-26 -14 -57 -10 -112 -40 -221 -65 -237 -6 -3 -16 7 -24 24 -7 16 -16 30 -20
30 -5 0 -8 6 -8 14 0 12 -52 64 -106 106 -73 57 -254 66 -254 13 0 -7 -4 -13
-10 -13 -5 0 -10 -17 -10 -38 0 -42 43 -102 72 -102 9 0 27 -22 41 -51 26 -50
26 -50 7 -82 -12 -20 -22 -62 -26 -107 -8 -91 -28 -120 -84 -120 -20 0 -41 5
-47 11 -21 21 -87 28 -172 18 -81 -9 -171 -41 -171 -61 0 -4 -6 -8 -14 -8 -8
0 -46 -31 -84 -69 -50 -49 -79 -89 -106 -144 -20 -41 -36 -84 -36 -94 0 -11
-5 -24 -11 -30 -7 -7 -9 -27 -6 -50 14 -89 20 -113 28 -113 5 0 9 -11 9 -24 0
-14 4 -27 9 -30 15 -10 32 -133 30 -224 -2 -95 7 -124 50 -157 59 -46 81 -74
81 -102 0 -36 31 -155 53 -205 9 -21 23 -53 31 -70 8 -18 26 -58 40 -89 14
-31 26 -61 26 -67 0 -7 5 -12 10 -12 6 0 10 -11 10 -24 0 -14 4 -27 9 -30 20
-13 39 -242 22 -259 -6 -6 -11 -24 -11 -39 0 -15 -4 -28 -10 -28 -5 0 -10 -6
-10 -13 0 -24 -90 -182 -131 -231 -5 -6 -24 -33 -41 -61 -18 -27 -35 -52 -38
-55 -12 -11 -67 -118 -135 -262 -9 -21 -21 -38 -26 -38 -5 0 -9 -6 -9 -14 0
-16 -44 -63 -85 -91 -36 -24 -113 -99 -140 -137 -17 -25 -26 -28 -74 -28 -30
0 -68 -4 -85 -9 -17 -5 -53 -14 -81 -20 -27 -6 -76 -25 -108 -41 -31 -17 -66
-30 -77 -30 -10 0 -22 -4 -25 -10 -3 -6 -15 -10 -26 -10 -10 0 -19 -4 -19 -10
0 -5 -4 -10 -10 -10 -5 0 -10 6 -10 13 0 30 -27 68 -60 84 -70 33 -155 28
-248 -15 -54 -24 -100 -8 -132 48 -18 31 -36 47 -57 54 -35 10 -103 0 -103
-14 0 -6 -13 -10 -30 -10 -19 0 -30 5 -30 14 0 29 -104 120 -159 140 -77 27
-194 12 -223 -29 -8 -11 -101 -9 -148 5 -19 6 -117 10 -218 10 -160 0 -190 3
-245 21 -67 23 -141 27 -203 10 -29 -8 -56 -7 -107 4 -174 36 -228 30 -307
-35 -64 -53 -82 -60 -144 -60 -54 0 -56 1 -81 41 -26 39 -88 78 -127 79 -10 0
-43 12 -75 27 -50 23 -72 27 -153 27 -70 1 -105 6 -135 20 -81 37 -75 35 -240
66 -111 21 -301 26 -399 10 -34 -5 -124 -16 -201 -25 -77 -9 -153 -18 -170
-21 -124 -21 -196 -26 -385 -26 -213 -1 -295 6 -306 23 -3 5 -14 9 -25 9 -10
0 -27 4 -37 10 -48 27 -114 50 -142 50 -17 0 -40 9 -52 20 -12 11 -30 20 -39
20 -10 0 -21 5 -24 10 -3 6 -21 10 -40 10 -61 0 -195 41 -315 97 -103 47 -178
69 -281 83 -41 5 -83 12 -93 16 -18 7 -166 -9 -244 -27 -128 -29 -191 -147
-179 -335 13 -210 52 -295 157 -338 82 -33 326 -33 463 0 18 4 43 0 70 -11 23
-10 53 -22 67 -27 14 -6 33 -14 42 -19 10 -5 28 -5 44 1 37 15 183 15 197 1
14 -14 44 -14 49 0 5 14 74 14 91 1 7 -6 75 -13 152 -16 77 -2 169 -9 205 -14
134 -20 268 -42 345 -58 44 -9 97 -18 118 -21 20 -3 40 -9 43 -14 3 -5 23 -9
44 -9 21 0 42 -4 45 -10 3 -5 14 -10 23 -10 13 0 141 -58 244 -111 10 -5 24
-9 32 -9 8 0 16 -4 18 -8 5 -12 209 -72 245 -72 17 0 34 -4 37 -9 8 -13 137
-25 291 -26 81 0 156 -6 178 -13 85 -28 106 -32 151 -32 36 0 58 -7 91 -30 24
-17 48 -30 54 -30 6 0 11 -4 11 -10 0 -5 13 -10 29 -10 17 0 32 -4 35 -9 3 -4
25 -11 48 -15 24 -3 59 -8 78 -11 19 -3 49 -8 66 -11 18 -2 51 -20 75 -39 24
-19 50 -35 57 -35 6 0 12 -4 12 -8 0 -4 15 -16 33 -27 17 -10 46 -29 62 -42
17 -13 35 -27 40 -31 70 -53 106 -83 136 -115 21 -20 41 -37 46 -37 5 0 18 -9
30 -19 39 -36 145 -81 195 -81 15 0 30 -4 33 -10 8 -13 162 -13 170 0 8 14
130 13 174 -1 78 -25 139 -64 206 -133 72 -73 100 -90 170 -101 39 -6 140 6
176 20 20 7 74 -36 94 -75 13 -25 11 -38 -14 -136 -27 -109 -37 -135 -92 -249
-35 -73 -48 -92 -120 -187 -93 -120 -103 -124 -204 -84 -80 31 -259 8 -352
-46 -45 -25 -169 -87 -199 -98 -14 -6 -40 -3 -70 6 -51 16 -139 13 -157 -5 -7
-7 -19 -5 -36 4 -15 7 -56 19 -91 25 -36 6 -79 16 -96 21 -17 5 -40 9 -52 9
-12 0 -22 5 -22 10 0 6 -6 10 -13 10 -18 0 -221 101 -225 112 -2 4 -12 8 -23
8 -10 0 -19 4 -19 9 0 9 -7 11 -105 30 -68 13 -291 13 -339 0 -48 -13 -136
-101 -136 -136 0 -13 -4 -23 -10 -23 -12 0 -13 -104 -1 -128 5 -9 19 -39 32
-67 31 -65 171 -204 207 -205 6 0 12 -4 12 -10 0 -5 4 -10 9 -10 10 0 130 -52
163 -70 10 -6 27 -10 37 -10 11 0 23 -4 26 -10 3 -5 19 -10 34 -10 15 0 31 -4
36 -9 6 -5 89 -12 185 -15 259 -10 420 -22 465 -36 23 -7 59 -9 88 -6 54 8
114 -7 189 -45 10 -5 25 -9 33 -9 8 0 15 -4 15 -10 0 -5 6 -10 14 -10 8 0 50
-11 93 -24 132 -41 214 -56 304 -56 73 0 98 5 160 30 41 16 84 30 97 30 24 0
86 -36 124 -72 46 -44 63 -48 240 -54 152 -6 181 -5 236 12 34 10 62 22 62 26
0 4 9 8 20 8 11 0 20 4 20 8 0 14 69 42 102 42 41 0 188 28 210 40 10 6 27 10
37 10 11 0 23 5 26 10 3 6 15 10 26 10 10 0 19 5 19 10 0 6 7 10 16 10 18 0
258 120 262 132 2 4 8 8 14 8 6 0 30 14 55 30 24 17 48 30 54 30 5 0 9 5 9 10
0 6 7 10 15 10 8 0 15 4 15 9 0 17 86 51 131 51 47 0 129 32 129 50 0 5 9 10
20 10 11 0 20 5 20 10 0 6 7 10 15 10 38 0 101 49 125 98 24 48 75 92 151 130
15 7 36 22 46 32 15 13 40 19 99 21 68 3 91 10 156 42 70 34 98 57 138 116 8
11 18 21 22 21 4 0 45 24 90 54 46 29 100 56 120 60 41 7 139 56 164 81 9 8
20 15 25 15 6 0 46 35 89 78 43 43 96 87 119 97 22 11 41 23 41 28 0 4 4 7 10
7 13 0 224 122 228 132 2 4 8 8 13 8 13 0 163 100 167 111 2 5 8 9 13 9 20 0
204 179 237 230 19 29 72 99 90 118 6 7 12 17 12 22 0 5 6 15 13 22 6 7 18 25
26 40 7 14 21 29 30 32 66 21 141 104 141 157 0 10 5 21 10 24 6 3 10 17 10
30 0 13 9 30 20 38 26 18 99 88 125 118 22 28 95 146 95 155 0 3 35 41 78 83
42 42 83 87 91 101 22 39 27 171 8 210 -12 24 -14 37 -5 58 5 15 11 101 12
192 1 158 -4 199 -35 278 -21 52 -28 69 -48 114 -11 26 -26 65 -33 87 -7 23
-16 41 -20 41 -5 0 -8 9 -8 20 0 11 -4 20 -10 20 -5 0 -10 9 -10 20 0 11 -4
20 -10 20 -5 0 -10 8 -10 18 0 10 -4 22 -9 28 -16 17 -61 149 -61 179 0 17 15
55 33 85 72 123 92 186 102 330 3 47 12 108 19 135 34 126 38 179 21 241 -10
32 -24 70 -32 83 -13 20 -14 32 -3 78 22 99 8 218 -31 275 -11 14 -19 29 -19
33 0 12 -52 53 -83 66 -22 9 -37 10 -58 2 -27 -10 -30 -9 -50 23 -24 40 -84
74 -130 74 -23 0 -40 -9 -65 -36 -30 -31 -34 -42 -34 -88 0 -28 4 -56 9 -61
14 -16 18 -105 4 -105 -6 0 -14 6 -16 13 -4 7 -8 3 -12 -10 -9 -28 -31 -30
-40 -3 -3 11 -11 20 -16 20 -5 0 -9 7 -9 15 0 8 -4 15 -10 15 -5 0 -10 5 -10
11 0 6 -7 18 -16 27 -15 15 -16 15 -11 -3 12 -45 15 -93 8 -135 l-8 -45 -7 40
c-4 22 -15 56 -24 75 l-17 35 -3 -45 c-3 -47 -22 -82 -22 -42 0 28 -16 57 -54
100 -26 28 -36 32 -81 32 -41 0 -56 -5 -73 -23 -21 -22 -52 -116 -52 -157 0
-25 -8 -25 -29 -1 -23 26 -87 61 -112 61 -18 0 -20 -4 -15 -27 4 -16 10 -41
13 -58 5 -27 4 -28 -10 -17 -9 8 -30 39 -48 70 -18 31 -72 97 -120 145 -85 84
-137 163 -126 191 3 6 27 23 53 36 156 79 187 106 243 214 24 46 31 71 31 117
0 64 -14 89 -62 115 -53 28 -86 17 -165 -54 -89 -79 -128 -111 -132 -107 -5 5
19 41 53 80 39 44 86 148 98 215 9 53 8 64 -11 102 -11 24 -34 52 -51 63 -16
11 -30 23 -30 28 0 4 -16 7 -35 7 -56 0 -86 -39 -131 -167 -10 -29 -22 -53
-26 -53 -5 0 -8 -9 -8 -19 0 -11 -4 -21 -8 -23 -4 -1 -18 -18 -31 -36 -28 -40
-38 -35 -18 10 28 67 37 106 37 170 0 99 -29 144 -109 173 -53 19 -58 18 -98
-1z m-110 -1173 c42 -24 89 -32 212 -37 55 -3 107 -7 115 -11 8 -3 44 -14 80
-24 35 -10 70 -26 77 -36 25 -35 88 -95 116 -109 23 -13 28 -21 25 -47 -3 -30
-6 -32 -45 -35 -26 -2 -43 1 -43 7 0 6 -9 11 -20 11 -11 0 -20 3 -20 8 0 4
-13 13 -30 20 -16 8 -30 20 -30 28 0 9 -4 12 -10 9 -16 -10 -12 -41 10 -80 25
-45 8 -45 -37 0 -20 20 -38 33 -41 31 -9 -10 9 -56 30 -76 21 -19 21 -20 2
-20 -11 0 -30 9 -42 20 -30 29 -43 25 -35 -10 6 -34 -1 -38 -25 -13 -15 15
-17 15 -20 1 -7 -39 21 -103 63 -144 24 -23 41 -45 38 -48 -6 -5 -55 26 -81
51 -18 18 -23 16 -15 -4 24 -65 97 -154 146 -179 33 -18 34 -23 1 -60 -35 -40
-56 -94 -50 -125 4 -21 -3 -35 -30 -63 -19 -20 -37 -36 -39 -36 -3 0 -5 30 -5
66 0 66 -21 148 -49 194 -24 40 -139 150 -156 150 -8 0 -15 5 -15 10 0 6 -9
10 -20 10 -24 0 -35 21 -44 84 -7 56 -49 139 -88 178 -16 14 -28 36 -28 48 0
12 -14 52 -31 88 -28 61 -30 70 -18 102 6 19 19 40 28 47 24 18 86 15 124 -6z
m1228 -1688 c23 -14 33 -15 48 -6 16 10 19 6 29 -39 7 -27 12 -59 12 -71 0
-19 -4 -18 -37 15 -21 20 -50 47 -65 62 -16 14 -28 32 -28 41 0 19 5 19 41 -2z"/>
</g>
</svg>
